#tb 0: 1/24
0,          0,          0,        1,    38016, e7a4be434df4bb524ba56a03cba901f4
0,          1,          1,        1,    38016, d903ade6d49e51485627c044fbb2190c
0,          2,          2,        1,    38016, af07ee39629b852870104cb9a9dde9e3
0,          3,          3,        1,    38016, 388a5f736db2de15342b62294fda4c82
0,          4,          4,        1,    38016, a072600936aa77738fa2fa88ba212849
0,          5,          5,        1,    38016, 0f96b1fb05b92498c0e1fcb6552e7e79
0,          6,          6,        1,    38016, 68b0db002a0127ee79a7c70062aa8c3a
0,          7,          7,        1,    38016, f9bc8edfeb9ceca9227a20cdab6788de
0,          8,          8,        1,    38016, bfe2115b000565abc3dce1d38f804ed7
0,          9,          9,        1,    38016, 67f17f96177f5464af1b97452560d2af
0,         10,         10,        1,    38016, 658278016e5409b69d014fab0d94d0ea
0,         11,         11,        1,    38016, 04dfd36afa0ddf22993d21c0a0fc715e
0,         12,         12,        1,    38016, 088e5a7cc75a895f01f7a4362f104bc1
0,         13,         13,        1,    38016, fb622a1a421b3689950f1adde9296dbb
0,         14,         14,        1,    38016, 3711ac7adc816614a2efda9e138f53fc
0,         15,         15,        1,    38016, 8e6fe3e68ccf53f23dd430b611fbfa6d
0,         16,         16,        1,    38016, 1c77dd651cd38d3308671f0705d29926
0,         17,         17,        1,    38016, bb5d7afccebc5d8a29f5980d21530d61
0,         18,         18,        1,    38016, e51f2eeb39afa50ea243eaca39974f82
0,         19,         19,        1,    38016, 7a73b1546fb5d8d4b05ebd4c839f74f8
0,         20,         20,        1,    38016, 62a0db46717d7fb6523c62968fd3bc85
0,         21,         21,        1,    38016, 98d6e520a164c42c5d19167c0ad48b22
0,         22,         22,        1,    38016, 9749a21ea432221323c1a6b61ea59d51
0,         23,         23,        1,    38016, 45fa9a9583db0139611b860bed8f6bc1
0,         24,         24,        1,    38016, aac06fe351759ca81a5028f2f4a7b534
0,         25,         25,        1,    38016, 7b7c7c16a377d61b6fe474541a18f0cd
0,         26,         26,        1,    38016, 2a84883fdfa8450d46b8b9352b7d5a87
0,         27,         27,        1,    38016, 3fc42d7dd6fa25ec17d8f2881f81b376
0,         28,         28,        1,    38016, bfb243be1eada17adab5580b748248e7
0,         29,         29,        1,    38016, 531fd799989db62210efc1999397d280
0,         30,         30,        1,    38016, 1c1e68673b295e17fca1b14d1eb1995e
0,         31,         31,        1,    38016, 12ee0f8810a1a3574337ef98987cf919
0,         32,         32,        1,    38016, 0c6ef1cec243c552e83054d5ac56a8c1
0,         33,         33,        1,    38016, cf0af3fb96e57143d335086485fbfa5c
0,         34,         34,        1,    38016, f5df68bb123d1f2f59ba471fbd118a9e
0,         35,         35,        1,    38016, 0b4a0cf5dd7968fd26959ad2849655b0
0,         36,         36,        1,    38016, 0ba766224688a95bfa43ac2453555972
0,         37,         37,        1,    38016, ef3f9fd7e5509bb880377fa1997d318c
0,         38,         38,        1,    38016, d7486c3176cef98c0046522acbdaa4f0
0,         39,         39,        1,    38016, f8dd15973993f4a2acd1d34b3610622e
0,         40,         40,        1,    38016, e99b7f294e6bdd9ae18f013f62174fcd
0,         41,         41,        1,    38016, 68ccf7e14a1055b24c5faf1b3a1888e7
0,         42,         42,        1,    38016, 2f230afb6e5c67e4b7e000317638e919
0,         43,         43,        1,    38016, 9cab31ac76ed26a879ac8b88bf7d33a1
0,         44,         44,        1,    38016, 1e2affc0f458808b4564bd0453565a81
0,         45,         45,        1,    38016, 79669092f6c73053c3de6d0d1408cc8c
0,         46,         46,        1,    38016, 7b27977ba84341b9af4d58a7864f763a
0,         47,         47,        1,    38016, 2481a387d65e7a16fe831b8da2200985
0,         48,         48,        1,    38016, fa5e3bc265877b30ca71de0a2b14663b
